# xmcd
#
# Track frame offsets:
#	183
#	16053
#	25710
#	40043
#	49893
#	60788
#	74390
#	85223
#	95798
#	112133
#	126718
#	135298
#	147910
#	158768
#	169050
#	182360
#	191408
#	204023
#
# Disc length: 2931 seconds
#
# Revision: 2
# Processed by: cddbd v1.4PL0 Copyright (c) Steve Scherf et al.
# Submitted via: audiograbber 1.81.03
#
DISCID=ea0b7112
DTITLE=Coro della Sat - La Montanara
DYEAR=1900
DGENRE=
TTITLE0=La Montanara
TTITLE1=Vien, vien, bionda d'amor
TTITLE2='ndormenzete popin
TTITLE3=El grileto e la formicola
TTITLE4=L'acquabbelle
TTITLE5=Era sera
TTITLE6=L'ane de Marion
TTITLE7=Sul cappello che noi portiamo
TTITLE8=Quando saremo giunti
TTITLE9=Varda la luna
TTITLE10=Cossa gave'voi pare
TTITLE11=Crudele fu mio padre
TTITLE12=Vostu che ti compre
TTITLE13=Quel mazzolin di fiori
TTITLE14=Canto del boschiero
TTITLE15=E l'o' tolta a matarelo
TTITLE16=Dove ela la gisela
TTITLE17=La paganella
EXTD=
EXTT0=
EXTT1=
EXTT2=
EXTT3=
EXTT4=
EXTT5=
EXTT6=
EXTT7=
EXTT8=
EXTT9=
EXTT10=
EXTT11=
EXTT12=
EXTT13=
EXTT14=
EXTT15=
EXTT16=
EXTT17=
PLAYORDER=
